<svg xmlns="http://www.w3.org/2000/svg" width="36.562" height="56.87" viewBox="0 0 36.562 56.87">
  <metadata><?xpacket begin="﻿" id="W5M0MpCehiHzreSzNTczkc9d"?>
<x:xmpmeta xmlns:x="adobe:ns:meta/" x:xmptk="Adobe XMP Core 5.6-c142 79.160924, 2017/07/13-01:06:39        ">
   <rdf:RDF xmlns:rdf="http://www.w3.org/1999/02/22-rdf-syntax-ns#">
      <rdf:Description rdf:about=""/>
   </rdf:RDF>
</x:xmpmeta>
                                                                                                    
                                                                                                    
                                                                                                    
                                                                                                    
                                                                                                    
                                                                                                    
                                                                                                    
                                                                                                    
                                                                                                    
                                                                                                    
                                                                                                    
                                                                                                    
                                                                                                    
                                                                                                    
                                                                                                    
                                                                                                    
                                                                                                    
                                                                                                    
                                                                                                    
                                                                                                    
                           
<?xpacket end="w"?></metadata>
<defs>
    <style>
      .cls-1 {
        fill: #2a2a2a;
        fill-rule: evenodd;
        opacity: 0.4;
      }
    </style>
  </defs>
  <path id="diy" class="cls-1" d="M521.886,3251.46a18.389,18.389,0,0,0-25.772,0,17.017,17.017,0,0,0-5.395,12.63,18.133,18.133,0,0,0,3.808,10.54,66.362,66.362,0,0,1,3.936,5.71,20.588,20.588,0,0,1,2.412,10.41v0.13h16.25v-0.13q0-6.48,2.285-10.41c0.337-.59,1.692-2.5,4.063-5.71a18.133,18.133,0,0,0,3.808-10.54A17.024,17.024,0,0,0,521.886,3251.46Zm-0.952,23.17-0.127.12a52.721,52.721,0,0,0-3.047,4.57,19.1,19.1,0,0,0-2.666,9.52h-2.031v-14.21l4.062-8.13h-2.158l-3.936,8.13v14.21h-4.062v-14.21l-3.936-8.13h-2.158l4.063,8.13v14.21h-2.032a18.636,18.636,0,0,0-2.666-9.52,13.491,13.491,0,0,0-1.65-2.66l-2.412-3.3a15.749,15.749,0,0,1-3.428-9.27q0-6.225,5.078-11.3a15.941,15.941,0,0,1,22.344,0q5.076,5.085,5.078,11.3a15.749,15.749,0,0,1-3.428,9.27l-0.761,1.01h0c-0.086,0-.127.09-0.127,0.26h0Zm-7.871,28.43v-2.03h-8.125v2.03h8.125Zm2.031-4.06v-2.03H502.906V3299h12.188Zm0-4.06v-2.03H502.906v2.03h12.188Z" transform="translate(-490.719 -3246.19)"/>
</svg>
