<svg xmlns="http://www.w3.org/2000/svg" width="56.94" height="40.63" viewBox="0 0 56.94 40.63">
  <metadata><?xpacket begin="﻿" id="W5M0MpCehiHzreSzNTczkc9d"?>
<x:xmpmeta xmlns:x="adobe:ns:meta/" x:xmptk="Adobe XMP Core 5.6-c142 79.160924, 2017/07/13-01:06:39        ">
   <rdf:RDF xmlns:rdf="http://www.w3.org/1999/02/22-rdf-syntax-ns#">
      <rdf:Description rdf:about=""/>
   </rdf:RDF>
</x:xmpmeta>
                                                                                                    
                                                                                                    
                                                                                                    
                                                                                                    
                                                                                                    
                                                                                                    
                                                                                                    
                                                                                                    
                                                                                                    
                                                                                                    
                                                                                                    
                                                                                                    
                                                                                                    
                                                                                                    
                                                                                                    
                                                                                                    
                                                                                                    
                                                                                                    
                                                                                                    
                                                                                                    
                           
<?xpacket end="w"?></metadata>
<defs>
    <style>
      .cls-1 {
        fill: #2a2a2a;
        fill-rule: evenodd;
        opacity: 0.4;
      }
    </style>
  </defs>
  <path id="gaming" class="cls-1" d="M1414.06,3563.56a2.469,2.469,0,0,0,.76,1.78A2.453,2.453,0,1,0,1414.06,3563.56Zm5.59,5.59a2.43,2.43,0,0,0,.76,1.78,2.453,2.453,0,0,0,3.55,0,2.442,2.442,0,0,0,0-3.56A2.535,2.535,0,0,0,1419.65,3569.15Zm-29.96-5.59a4.885,4.885,0,0,0,1.46,3.62,4.9,4.9,0,0,0,6.98,0,5.218,5.218,0,0,0,0-7.24,4.9,4.9,0,0,0-6.98,0A4.9,4.9,0,0,0,1389.69,3563.56Zm4.95-2.41a2.41,2.41,0,1,1-2.41,2.41A2.131,2.131,0,0,1,1394.64,3561.15Zm25.01-3.17a2.409,2.409,0,0,0,.76,1.77,2.511,2.511,0,1,0,3.55-3.55A2.535,2.535,0,0,0,1419.65,3557.98Zm5.58,5.58a2.441,2.441,0,0,0,.77,1.78,2.51,2.51,0,1,0,3.55-3.55A2.546,2.546,0,0,0,1425.23,3563.56Zm6.8-10.15a10.832,10.832,0,0,0-6.54-5.59,11.123,11.123,0,0,0-3.3-.51,24.837,24.837,0,0,0-5.08.95,26.809,26.809,0,0,1-14.22,0,24.954,24.954,0,0,0-5.08-.95,11.123,11.123,0,0,0-3.3.51,10.832,10.832,0,0,0-6.54,5.59q-2.475,4.44-4.63,13.33a51.727,51.727,0,0,0-1.78,14.02c0.17,3.77,1.06,6.03,2.67,6.8a3.7,3.7,0,0,0,1.65.38q3.165,0,8.63-6.6c1.61-2.04,3.09-3.24,4.45-3.62s4.52-.57,9.52-0.57h3.04q7.5,0,9.52.57c1.36,0.38,2.84,1.58,4.45,3.62q5.46,6.6,8.63,6.6a3.7,3.7,0,0,0,1.65-.38c1.61-.77,2.5-3.03,2.67-6.8a51.727,51.727,0,0,0-1.78-14.02Q1434.5,3557.845,1432.03,3553.41Zm2.09,32.5a4.64,4.64,0,0,1-2.92-1.53,33.411,33.411,0,0,1-4.06-4.31c-1.86-2.37-3.73-3.81-5.59-4.32q-2.16-.63-10.03-0.63h-3.04q-7.875,0-10.03.63-2.805.765-5.59,4.32a33.411,33.411,0,0,1-4.06,4.31,4.663,4.663,0,0,1-2.92,1.53,1.823,1.823,0,0,1-.76-0.13,3.355,3.355,0,0,1-1.27-2.22,21.488,21.488,0,0,1-.26-6.22,57.36,57.36,0,0,1,1.65-10.1q2.04-8.5,4.32-12.5t5.59-5.02a11.315,11.315,0,0,1,2.66-.38,14.9,14.9,0,0,1,3.81.64,28.282,28.282,0,0,0,16.76,0,14.9,14.9,0,0,1,3.81-.64,11.315,11.315,0,0,1,2.66.38c2.2,0.68,4.07,2.35,5.59,5.02s2.96,6.83,4.32,12.5a57.36,57.36,0,0,1,1.65,10.1,21.86,21.86,0,0,1-.26,6.22,3.4,3.4,0,0,1-1.27,2.22,1.823,1.823,0,0,1-.76.13h0Z" transform="translate(-1381.53 -3547.31)"/>
</svg>
