<svg xmlns="http://www.w3.org/2000/svg" width="70" height="70" viewBox="0 0 70 70">
  <metadata><?xpacket begin="﻿" id="W5M0MpCehiHzreSzNTczkc9d"?>
<x:xmpmeta xmlns:x="adobe:ns:meta/" x:xmptk="Adobe XMP Core 5.6-c142 79.160924, 2017/07/13-01:06:39        ">
   <rdf:RDF xmlns:rdf="http://www.w3.org/1999/02/22-rdf-syntax-ns#">
      <rdf:Description rdf:about=""/>
   </rdf:RDF>
</x:xmpmeta>
                                                                                                    
                                                                                                    
                                                                                                    
                                                                                                    
                                                                                                    
                                                                                                    
                                                                                                    
                                                                                                    
                                                                                                    
                                                                                                    
                                                                                                    
                                                                                                    
                                                                                                    
                                                                                                    
                                                                                                    
                                                                                                    
                                                                                                    
                                                                                                    
                                                                                                    
                                                                                                    
                           
<?xpacket end="w"?></metadata>
<defs>
    <style>
      .cls-1 {
        fill: #22429d;
        fill-rule: evenodd;
        opacity: 0.2;
      }
    </style>
  </defs>
  <path id="_" data-name="" class="cls-1" d="M976,1602.56a14.777,14.777,0,0,1-2.031,7.66,14.121,14.121,0,0,1-5.469,5.31l-2.5,1.56V1631H956v-13.91l-2.5-1.56a13.9,13.9,0,0,1-7.5-12.97,15,15,0,1,1,30,0h0ZM957.719,1566v10h6.562v-10h-6.562Zm20.781,14.38,4.688,4.68,5.937-5.93-4.687-4.69Zm-45.625-1.25,5.938,5.93,4.687-4.68-5.937-5.94ZM941,1602.56a19.382,19.382,0,0,0,2.734,10.08,20.252,20.252,0,0,0,7.266,7.27V1636h20v-16.09q10-5.79,10-17.35a20,20,0,0,0-40,0h0Zm45-3.28v6.56h10v-6.56H986Zm-60,0v6.56h10v-6.56H926Z" transform="translate(-926 -1566)"/>
</svg>
