<svg xmlns="http://www.w3.org/2000/svg" width="40.62" height="40.63" viewBox="0 0 40.62 40.63">
  <metadata><?xpacket begin="﻿" id="W5M0MpCehiHzreSzNTczkc9d"?>
<x:xmpmeta xmlns:x="adobe:ns:meta/" x:xmptk="Adobe XMP Core 5.6-c142 79.160924, 2017/07/13-01:06:39        ">
   <rdf:RDF xmlns:rdf="http://www.w3.org/1999/02/22-rdf-syntax-ns#">
      <rdf:Description rdf:about=""/>
   </rdf:RDF>
</x:xmpmeta>
                                                                                                    
                                                                                                    
                                                                                                    
                                                                                                    
                                                                                                    
                                                                                                    
                                                                                                    
                                                                                                    
                                                                                                    
                                                                                                    
                                                                                                    
                                                                                                    
                                                                                                    
                                                                                                    
                                                                                                    
                                                                                                    
                                                                                                    
                                                                                                    
                                                                                                    
                                                                                                    
                           
<?xpacket end="w"?></metadata>
<defs>
    <style>
      .cls-1 {
        fill: #2a2a2a;
        fill-rule: evenodd;
        opacity: 0.4;
      }
    </style>
  </defs>
  <path id="joke" class="cls-1" d="M1120.54,3580.64a20.669,20.669,0,0,1-2.41-.45,5.7,5.7,0,0,1-2.54-1.14c-0.26-.34-0.3-2.07-0.13-5.2l1.14-2.29a25.612,25.612,0,0,0,.89-3.93h0.25a1.533,1.533,0,0,0,.51-0.51,2.755,2.755,0,0,0,.38-1.02c0.51-2.2.76-3.38,0.76-3.55,0-.76-0.21-1.19-0.63-1.27l0.63-5.33a7.9,7.9,0,0,0-2.41-6.03,10.638,10.638,0,0,0-13.96,0,7.866,7.866,0,0,0-2.41,6.03,22.356,22.356,0,0,0,.63,5.33h-0.13a0.8,0.8,0,0,0-.38.44,2.39,2.39,0,0,0-.12.83,5.86,5.86,0,0,0,.31,1.65,15.358,15.358,0,0,1,.45,1.77q0.255,1.53,1.14,1.53l0.89,4.06a13.838,13.838,0,0,0,1.14,2.29l-0.13,5.2a5.765,5.765,0,0,1-2.53,1.14,21.571,21.571,0,0,1-2.42.45,15.758,15.758,0,0,0-3.04.7q-6.735,2.535-6.73,6.6h40.62q0-4.065-6.73-6.6A15.758,15.758,0,0,0,1120.54,3580.64Zm-27.93,5.27a2.794,2.794,0,0,1,1.01-1.02,18.437,18.437,0,0,1,3.43-1.65,14.692,14.692,0,0,1,3.17-.63c0.51-.09,1.19-0.21,2.04-0.39a9.349,9.349,0,0,0,3.68-1.9c0.51-.68.76-2.03,0.76-4.06a24.006,24.006,0,0,0-.13-2.54v-0.51l-0.25-.51a3.574,3.574,0,0,1-1.02-1.9,14.149,14.149,0,0,1-.76-3.56l-0.13-.5a0.911,0.911,0,0,0-.63-0.57,0.62,0.62,0,0,1-.51-0.45l-0.25-.63a9.058,9.058,0,0,1-.38-1.65,1.826,1.826,0,0,1,.25-1.4l0.25-.64a1.1,1.1,0,0,0,0-.76v-0.25a2.722,2.722,0,0,1-.19-0.64c-0.04-.25-0.08-0.57-0.12-0.95s-0.09-.82-0.13-1.33-0.06-1.06-.06-1.65a6,6,0,0,1,1.65-4.44,7.683,7.683,0,0,1,5.71-2.04,7.548,7.548,0,0,1,5.59,2.04,6.022,6.022,0,0,1,1.77,4.44q0,0.885-.06,1.65c-0.04.51-.09,0.95-0.13,1.33s-0.08.7-.12,0.95a2.722,2.722,0,0,1-.19.64v0.25l-0.13.64a2.928,2.928,0,0,0,.38.76,1.989,1.989,0,0,1,.25,1.4,9.058,9.058,0,0,1-.38,1.65l-0.25.63a0.62,0.62,0,0,1-.51.45,0.911,0.911,0,0,0-.63.57l-0.13.5a14.608,14.608,0,0,1-.76,3.56,6.154,6.154,0,0,1-.32.76c-0.13.25-.28,0.51-0.44,0.76l-0.26.38-0.25.51v0.51l-0.13,2.54c0,2.03.25,3.38,0.76,4.06a9.349,9.349,0,0,0,3.68,1.9,1.755,1.755,0,0,1,.58.13,3.528,3.528,0,0,0,1.33.26q1.77,0.255,3.3.63a18.437,18.437,0,0,1,3.43,1.65,2.954,2.954,0,0,1,1.01,1.02h-34.78Z" transform="translate(-1089.69 -3547.31)"/>
</svg>
