<svg xmlns="http://www.w3.org/2000/svg" width="40.625" height="45.19" viewBox="0 0 40.625 45.19">
  <metadata><?xpacket begin="﻿" id="W5M0MpCehiHzreSzNTczkc9d"?>
<x:xmpmeta xmlns:x="adobe:ns:meta/" x:xmptk="Adobe XMP Core 5.6-c142 79.160924, 2017/07/13-01:06:39        ">
   <rdf:RDF xmlns:rdf="http://www.w3.org/1999/02/22-rdf-syntax-ns#">
      <rdf:Description rdf:about=""/>
   </rdf:RDF>
</x:xmpmeta>
                                                                                                    
                                                                                                    
                                                                                                    
                                                                                                    
                                                                                                    
                                                                                                    
                                                                                                    
                                                                                                    
                                                                                                    
                                                                                                    
                                                                                                    
                                                                                                    
                                                                                                    
                                                                                                    
                                                                                                    
                                                                                                    
                                                                                                    
                                                                                                    
                                                                                                    
                                                                                                    
                           
<?xpacket end="w"?></metadata>
<defs>
    <style>
      .cls-1 {
        fill: #2a2a2a;
        fill-rule: evenodd;
        opacity: 0.4;
      }
    </style>
  </defs>
  <path id="music" class="cls-1" d="M831.313,3545.03l-28.438,4.44v30.09c-1.777,0-3.64.04-5.586,0.13q-6.6.255-6.6,5.2,0,5.715,8,5.33a8.043,8.043,0,0,0,3.681-.95,4.228,4.228,0,0,0,1.9-2.6,18.311,18.311,0,0,0,.635-2.99q0.126-1.2.127-3.36v-21.07l24.248-4.07v20.32c-0.339,0-.742.02-1.206,0.06s-1.1.08-1.9,0.13-1.587.06-2.349,0.06c-4.4.17-6.6,1.9-6.6,5.21q0,5.58,7.871,5.2a5.907,5.907,0,0,0,4.951-2.28q1.268-1.9,1.27-8.13v-30.72Z" transform="translate(-790.688 -3545.03)"/>
</svg>
