<svg xmlns="http://www.w3.org/2000/svg" width="70" height="45" viewBox="0 0 70 45">
  <metadata><?xpacket begin="﻿" id="W5M0MpCehiHzreSzNTczkc9d"?>
<x:xmpmeta xmlns:x="adobe:ns:meta/" x:xmptk="Adobe XMP Core 5.6-c142 79.160924, 2017/07/13-01:06:39        ">
   <rdf:RDF xmlns:rdf="http://www.w3.org/1999/02/22-rdf-syntax-ns#">
      <rdf:Description rdf:about=""/>
   </rdf:RDF>
</x:xmpmeta>
                                                                                                    
                                                                                                    
                                                                                                    
                                                                                                    
                                                                                                    
                                                                                                    
                                                                                                    
                                                                                                    
                                                                                                    
                                                                                                    
                                                                                                    
                                                                                                    
                                                                                                    
                                                                                                    
                                                                                                    
                                                                                                    
                                                                                                    
                                                                                                    
                                                                                                    
                                                                                                    
                           
<?xpacket end="w"?></metadata>
<defs>
    <style>
      .cls-1 {
        fill: #22429d;
        fill-rule: evenodd;
        opacity: 0.2;
      }
    </style>
  </defs>
  <path id="_" data-name="" class="cls-1" d="M1373.33,1613.56a13.628,13.628,0,0,1-3.2-.78c-1.25-.31-1.98-0.73-2.19-1.25a6.611,6.611,0,0,1-.31-2.34v-1.72a2.207,2.207,0,0,1,.54-0.78,2.245,2.245,0,0,0,.55-0.78,13.4,13.4,0,0,0,1.09-4.85,0.929,0.929,0,0,0,1.02-.31,3.22,3.22,0,0,0,.55-1.56l0.31-1.1a2.836,2.836,0,0,0,.23-0.86c0.05-.36.1-0.78,0.16-1.25a2.08,2.08,0,0,0-.16-1.17,0.527,0.527,0,0,0-.7-0.31,7.523,7.523,0,0,0,.62-2.34,12.764,12.764,0,0,0-.15-6.1,8.565,8.565,0,0,0-3.52-4.68,11.027,11.027,0,0,0-5.7-1.88,11.234,11.234,0,0,0-6.09,1.41,8.317,8.317,0,0,0-3.91,4.53,12.872,12.872,0,0,0-.47,6.09,7.656,7.656,0,0,0,.78,2.97c-0.73-.1-0.88.99-0.47,3.28a9.336,9.336,0,0,0,.24,1.17,5.16,5.16,0,0,0,.62,1.64,0.868,0.868,0,0,0,1.02.47,34.233,34.233,0,0,0,.62,3.75,6.97,6.97,0,0,0,1.25,2.19,1.064,1.064,0,0,1,.32.78,22.95,22.95,0,0,1-.16,3.6c-0.21,1.04-1.56,1.71-4.06,2.03-4.07.93-6.62,1.77-7.66,2.5a9.858,9.858,0,0,0-4.22,8.59h43.44a10.364,10.364,0,0,0-1.95-6.17,11.259,11.259,0,0,0-5.24-3.99A13.9,13.9,0,0,0,1373.33,1613.56Zm-28.83-1.25h0Zm-0.62.32h-0.16l0.78-.32h0.16a13.826,13.826,0,0,1,3.28-.78c0.52,0,.62-0.26.31-0.78a2.648,2.648,0,0,0-.94-0.55,9.794,9.794,0,0,0-1.48-.39,4.778,4.778,0,0,1-1.17-.31,0.951,0.951,0,0,1-.78-1.09v-1.72a3,3,0,0,1,1.4-.16,14.468,14.468,0,0,0,2.66-.62l0.94-.47a2.439,2.439,0,0,0-.47-1.41,10.281,10.281,0,0,1-.78-3.75v-3.36a20.287,20.287,0,0,0-.32-4.14q-0.93-5.775-7.34-5.78-4.215,0-5.94,2.81c-0.83,1.25-1.25,3.81-1.25,7.66,0,1.98-.05,3.44-0.15,4.37a3.54,3.54,0,0,1-.16.86,6.121,6.121,0,0,1-.31.86l-0.63,1.88a6.914,6.914,0,0,0,5,1.09,11.636,11.636,0,0,1-.15,2.5,1.6,1.6,0,0,1-1.1.78q-0.93.315-2.19,0.63a12.246,12.246,0,0,1-1.4.31c-3.13,1.04-4.69,3.13-4.69,6.25h12.5c0.21,0,.57-0.57,1.09-1.72a15.466,15.466,0,0,1,3.75-2.97,1.822,1.822,0,0,1-.46.32h0Zm46.79-2.19a8.315,8.315,0,0,1-1.79-.47,3.616,3.616,0,0,1-1.25-.78,9.474,9.474,0,0,1-.16-2.66,9.678,9.678,0,0,0,2.03-.15l1.88-.47a0.585,0.585,0,0,1,.46-0.16,0.609,0.609,0,0,0,.47-0.16q0.48-.15,0-0.93a6.914,6.914,0,0,1-.93-2.35,11.1,11.1,0,0,1-.32-2.34c0-.63.03-1.51,0.08-2.66s0.08-1.92.08-2.34c0-3.33-1.04-5.63-3.13-6.88a8.264,8.264,0,0,0-7.5-.46q-3.9,1.56-4.21,8.43c-0.21,4.59-.47,7.24-0.79,7.97-0.41.94-.41,1.51,0,1.72,0.52,0.21,1.1.42,1.72,0.63a19.915,19.915,0,0,0,2.82.31v2.19c-0.11.31-.94,0.67-2.5,1.09a3.931,3.931,0,0,0-2.04.94,0.434,0.434,0,0,0,.24.62,2.639,2.639,0,0,0,1.01.16h0.79a11.4,11.4,0,0,1,4.37,2.34,7.777,7.777,0,0,1,2.5,2.97H1397c0-3.12-1.62-5.21-4.84-6.25A10.226,10.226,0,0,0,1390.67,1610.44Z" transform="translate(-1327 -1579.5)"/>
</svg>
