<svg xmlns="http://www.w3.org/2000/svg" width="78.75" height="61.88" viewBox="0 0 78.75 61.88">
  <metadata><?xpacket begin="﻿" id="W5M0MpCehiHzreSzNTczkc9d"?>
<x:xmpmeta xmlns:x="adobe:ns:meta/" x:xmptk="Adobe XMP Core 5.6-c142 79.160924, 2017/07/13-01:06:39        ">
   <rdf:RDF xmlns:rdf="http://www.w3.org/1999/02/22-rdf-syntax-ns#">
      <rdf:Description rdf:about=""/>
   </rdf:RDF>
</x:xmpmeta>
                                                                                                    
                                                                                                    
                                                                                                    
                                                                                                    
                                                                                                    
                                                                                                    
                                                                                                    
                                                                                                    
                                                                                                    
                                                                                                    
                                                                                                    
                                                                                                    
                                                                                                    
                                                                                                    
                                                                                                    
                                                                                                    
                                                                                                    
                                                                                                    
                                                                                                    
                                                                                                    
                           
<?xpacket end="w"?></metadata>
<defs>
    <style>
      .cls-1 {
        fill: #22429d;
        fill-rule: evenodd;
        opacity: 0.2;
      }
    </style>
  </defs>
  <path id="_" data-name="" class="cls-1" d="M568.646,1572.77a17.879,17.879,0,0,0-7.646,6.86,17.879,17.879,0,0,0-7.646-6.86,23.449,23.449,0,0,0-10.459-2.46q-9.319,0-15.293,5.45t-5.977,14.94q0,9.675,7.207,18.46a75.67,75.67,0,0,0,17.578,15.47q9.666,6.33,14.59,7.56l1.406-.53a47.038,47.038,0,0,0,5.274-2.37,86.3,86.3,0,0,0,25.488-20.13q7.206-8.79,7.207-18.46,0-9.48-5.977-14.94-5.978-5.445-15.293-5.45A23.443,23.443,0,0,0,568.646,1572.77Z" transform="translate(-521.625 -1570.31)"/>
</svg>
